# xmcd CD database file
#
# Track frame offsets:
#	150
#	12900
#	24000
#	39160
#	55427
#	69225
#	82752
#	95652
#	111927
#	127800
#	141687
#	158160
#	171325
#	192582
#	207135
#	221082
#	241432
#	256962
#	270537
#	288957
#	304362
#
# Disc length: 4271 seconds
#
# Revision: 0
# Processed by: cddbd v1.5.2PL0 Copyright (c) Steve Scherf et al.
# Submitted via: CDex 1.51
#
DISCID=2c10ad15
DTITLE=Sampler - International Country Festival
DYEAR=1996
DGENRE=Country
TTITLE0=Susan Raye - L.A. International Airport
TTITLE1=Johnny Cash - Oh Lonnesome Me
TTITLE2=Brigitte Oelke - Motherien Child
TTITLE3=George McCoy - Somebody Is Waiting
TTITLE4=Tennessee - Heirats-Angebote
TTITLE5=Richmond County Pickers - Duellin Banjos
TTITLE6=Jonny Hill - 500 Meilen von zu Haus
TTITLE7=Lise Nielsen - Dromme (Manuel Goodbye)
TTITLE8=Renee Bergt - Jede Straße führt zu Dir
TTITLE9=Sytie - Afscheid Van Jou
TTITLE10=Marc Elroy - You're in Love
TTITLE11=Country Action - Meg Og Min Gitar
TTITLE12=Barry Lane - Meine Fehler zu verzeih'n
TTITLE13=Jeannie C. Riley - Harper Valley P.T.A.
TTITLE14=Joe Grains - Das Schönste auf der Welt
TTITLE15=Texas Country Band - Där Skugger Dricker Te
TTITLE16=Otto Fürst - Ich bin ein Tramp
TTITLE17=Alex Baerendsen - The Good Memories
TTITLE18=Carina - Du bist der Mann
TTITLE19=Volker Frank Band - Country Lady
TTITLE20=McCoy and Lane - All our Songs
EXTD=YEAR: 1996
EXTT0=
EXTT1=
EXTT2=
EXTT3=
EXTT4=
EXTT5=
EXTT6=
EXTT7=
EXTT8=
EXTT9=
EXTT10=
EXTT11=
EXTT12=
EXTT13=
EXTT14=
EXTT15=
EXTT16=
EXTT17=
EXTT18=
EXTT19=
EXTT20=
PLAYORDER=
